<svg xmlns="http://www.w3.org/2000/svg" width="93.052" height="163.416" viewBox="0 0 93.052 163.416">
  <g id="ukelele" transform="translate(46.528 -21.848) rotate(45)">
    <path id="路径_15" data-name="路径 15" d="M48.892,53.942l5.254-5.254-1.925-5.3L38.85,28.778l-9.868,9.868L43.589,52.018Zm-11.25-12.38A1.226,1.226,0,1,1,38,40.7a1.226,1.226,0,0,1-.357.864Zm8.409.6a1.22,1.22,0,1,1-.36.864,1.234,1.234,0,0,1,.36-.864ZM40.9,37.8a1.22,1.22,0,1,1,.867-.357A1.22,1.22,0,0,1,40.9,37.8Zm1.469,9.78a1.22,1.22,0,1,1,.867.36A1.22,1.22,0,0,1,42.37,47.576Z" transform="translate(-13.578 -13.284)"/>
    <path id="路径_16" data-name="路径 16" d="M162.557,174.053l-42.6-42.6-1.5,1.5,40.13,43.109A41.43,41.43,0,0,0,162.557,174.053Z" transform="translate(-81.146 -90.821)"/>
    <path id="路径_17" data-name="路径 17" d="M176.26,158.378l-43.109-40.13-1.5,1.5,42.6,42.6a41.408,41.408,0,0,0,2.005-3.974Z" transform="translate(-91.113 -80.852)"/>
    <path id="路径_18" data-name="路径 18" d="M277.632,251.174c-.674-.008-1.311-.015-1.913-.036a11.192,11.192,0,0,1-7.61-3.117,11.5,11.5,0,0,1-3.121-7.684,1.215,1.215,0,0,1,0-.158,8.037,8.037,0,0,0-2.656-5.776c-4.642-4.642-11.05-2.792-15.453,1.055l7.913,7.366a1.224,1.224,0,0,1,.293,1.375,41.415,41.415,0,0,1-2.83,5.57l3.313,3.313a8.815,8.815,0,0,1,12.345,12.345l13.3,13.3,5.82-5.82a1.224,1.224,0,0,1,1.731,0l4.018,4.018a1.224,1.224,0,0,1,0,1.731l-13.374,13.374a1.224,1.224,0,0,1-1.731,0l-4.018-4.019a1.224,1.224,0,0,1,0-1.731l5.823-5.823-13.3-13.3a8.815,8.815,0,0,1-12.346-12.346l-3.311-3.311a41.429,41.429,0,0,1-5.57,2.83,1.224,1.224,0,0,1-1.375-.293l-7.369-7.914a13.544,13.544,0,0,0-3.6,8.237,9.431,9.431,0,0,0,2.546,7.222,8.029,8.029,0,0,0,5.785,2.655,1.367,1.367,0,0,1,.148,0,11.5,11.5,0,0,1,7.684,3.121,11.19,11.19,0,0,1,3.117,7.61c.02.6.028,1.238.035,1.912.052,4.553.122,10.788,4.651,15.543a17.12,17.12,0,0,0,12.54,5.124c7.017.092,14.6-3.246,20.267-8.914s9-13.244,8.913-20.267a17.119,17.119,0,0,0-5.123-12.54c-4.755-4.527-10.99-4.6-15.542-4.65Z" transform="translate(-167.345 -166.499)"/>
    <path id="路径_19" data-name="路径 19" d="M0,0H7.011V3.235H0Z" transform="translate(108.886 120.644) rotate(-45)"/>
    <path id="路径_20" data-name="路径 20" d="M0,0H7.006V3.235H0Z" transform="translate(115.575 113.957) rotate(-45)"/>
    <path id="路径_21" data-name="路径 21" d="M322.11,336.962a6.367,6.367,0,0,0,9.923,5.282l-8.839-8.839a6.323,6.323,0,0,0-1.084,3.556Z" transform="translate(-234.948 -243.339)"/>
    <path id="路径_22" data-name="路径 22" d="M343.536,328.3a6.37,6.37,0,0,0-9.918-5.285l8.837,8.837A6.323,6.323,0,0,0,343.536,328.3Z" transform="translate(-243.639 -234.675)"/>
    <path id="路径_23" data-name="路径 23" d="M120.564,48.155l.83.83a1.224,1.224,0,1,0,1.731-1.731l-3.391-3.39A1.224,1.224,0,1,0,118,45.6l.83.83L114.8,50.456l1.731,1.731Z" transform="translate(-78.388 -24.407)"/>
    <path id="路径_24" data-name="路径 24" d="M88.065,20.058l4.22-4.22.83.83a1.224,1.224,0,1,0,1.731-1.731l-3.391-3.39a1.224,1.224,0,1,0-1.731,1.731l.83.83-4.22,4.22Z" transform="translate(-56.89 0)"/>
    <path id="路径_25" data-name="路径 25" d="M50.269,114.992l-4.032,4.032-.83-.83a1.224,1.224,0,0,0-1.731,1.731l3.391,3.392a1.224,1.224,0,0,0,1.731-1.731l-.83-.83L52,116.724Z" transform="translate(-24.404 -78.393)"/>
    <path id="路径_26" data-name="路径 26" d="M15.653,92.473l4.22-4.22-1.731-1.731-4.221,4.22-.83-.83a1.224,1.224,0,0,0-1.731,1.731l3.391,3.39A1.224,1.224,0,0,0,16.483,93.3Z" transform="translate(0 -56.892)"/>
  </g>
</svg>
